<?xml version="1.0" standalone="no"?>
<!DOCTYPE svg PUBLIC "-//W3C//DTD SVG 20010904//EN"
 "http://www.w3.org/TR/2001/REC-SVG-20010904/DTD/svg10.dtd">
<svg version="1.0" xmlns="http://www.w3.org/2000/svg"
 width="512.000000pt" height="512.000000pt" viewBox="0 0 512.000000 512.000000"
 preserveAspectRatio="xMidYMid meet">
<metadata>
Created by potrace 1.11, written by Peter Selinger 2001-2013
</metadata>
<g transform="translate(0.000000,512.000000) scale(0.100000,-0.100000)"
fill="#000000" stroke="none">
<path d="M2438 5105 c-2 -1 -39 -5 -83 -9 -277 -23 -573 -103 -840 -227 -644
-298 -1168 -889 -1383 -1559 -47 -146 -61 -200 -97 -380 -1 -8 -6 -40 -10 -70
-4 -30 -10 -68 -13 -85 -3 -16 -7 -635 -9 -1375 -3 -1169 -2 -1348 11 -1365
14 -20 26 -20 1353 -20 736 0 1383 4 1438 8 669 53 1307 378 1732 882 329 390
521 852 572 1375 13 131 14 2683 1 2731 -6 21 -21 51 -34 66 l-24 28 -1306 1
c-718 1 -1306 0 -1308 -1z"/>
</g>
</svg>
